<?xml version="1.0" encoding="utf-8"?>
<!-- Generator: Adobe Illustrator 27.5.0, SVG Export Plug-In . SVG Version: 6.00 Build 0)  -->
<svg version="1.1" xmlns="http://www.w3.org/2000/svg" xmlns:xlink="http://www.w3.org/1999/xlink" x="0px" y="0px"
	 viewBox="0 0 1366 768" style="enable-background:new 0 0 1366 768;" xml:space="preserve">
<style type="text/css">
	.st0{display:none;}
	.st1{display:inline;}
	.st2{stroke:#000000;stroke-miterlimit:10;}
	.st3{fill:#FFFFFF;stroke:#000000;stroke-miterlimit:10;}
	.st4{fill:none;}
	.st5{font-family:'HelveticaNeue';}
	.st6{font-size:200px;}
</style>
<g id="Icon" class="st0">
	<g class="st1">
		<path id="right_antena_00000128448073416199515780000010371976462812041619_" class="st2" d="M1082.29,329.87
			c1.04,1.02,6.27-7.52,19.05-11.03c7.66-2.1,13.41-1.13,17.54-6.02c0.57-0.68,3.03-3.58,2.51-7.02c-0.56-3.64-4.22-6.27-6.52-7.02
			C1102.75,294.87,1080.19,327.83,1082.29,329.87z"/>
		<path id="left_antena_00000146483197922616293520000008050167373365136010_" class="st2" d="M1066.25,328.87
			c4.12-2.08-9.17-45.48-20.55-45.11c-1.61,0.05-3.54,0.99-4.51,2.51c-2.24,3.49,1.07,9.39,6.02,17.04
			C1058.62,320.99,1064.33,329.84,1066.25,328.87z"/>
		<path id="hair_00000093134613254143727560000002389545023804034477_" class="st2" d="M1074.79,318.05
			c1.03-0.12,1.47,2.19,4.07,5.45c2.42,3.04,3.96,3.46,3.73,4.28c-0.6,2.23-12.75,1.81-13.3-0.75c-0.2-0.91,1.24-1.3,2.97-4.18
			C1074.01,319.95,1073.88,318.15,1074.79,318.05z"/>
		
			<ellipse id="head_00000147926891225545351400000009858801733947865746_" class="st2" cx="1067.01" cy="372.06" rx="62.51" ry="45.03"/>
		<path id="torso_00000183231203675401418990000002812612069609372073_" class="st2" d="M1039.76,418.52
			c4.89-3.28,11.84,2.49,31.33,1.5c17.55-0.89,23.01-6.12,27.19-3.51c11.81,7.38-8.51,63.77-30.15,63.66
			C1047.14,480.07,1027.42,426.79,1039.76,418.52z"/>
		<path class="st2" d="M1067.85,432.79"/>
		
			<ellipse id="left_hand_00000088813277391126171640000013620929971246153864_" class="st2" cx="1023.66" cy="436.16" rx="11" ry="9.33"/>
		
			<ellipse id="right_hand_00000057842042893213055880000008641785399772438705_" class="st2" cx="1112.81" cy="436.16" rx="11" ry="9.33"/>
		<path class="st2" d="M982.86,491.85"/>
		
			<ellipse id="left_eye_00000134943447997476659570000011831844766248245942_" class="st3" cx="1041.66" cy="369.85" rx="14.45" ry="16.16"/>
		
			<ellipse id="right_eye_00000065051462240184911890000002553512732344120749_" class="st3" cx="1099.37" cy="368.05" rx="14.45" ry="16.16"/>
		<path class="st2" d="M1049.28,469.89c1.04,1.24,5.19,6.18,3.12,9.33c-1.19,1.81-4.29,2.83-24.55,1.53
			c-14.18-0.91-21.28-1.41-22.09-3.3c-1.86-4.38,10.48-15.71,24.33-15.42C1031.31,462.05,1043.06,462.45,1049.28,469.89z"/>
		<path class="st2" d="M1087.85,468.06c-1.2,1.13-6,5.63-4.38,8.96c0.93,1.91,3.87,3.23,24.18,3.93c14.21,0.49,21.33,0.7,22.39-1.11
			c2.45-4.16-8.26-16.64-22.05-17.71C1106.77,462.04,1095.05,461.28,1087.85,468.06z"/>
		<path class="st2" d="M1041.7,421.34c-0.18-0.62-8.07-1.03-13.34,3.04c-4.11,3.17-5.2,7.98-4.5,8.31c0.7,0.33,2.82-3.93,8.94-7.56
			C1037.8,422.16,1041.83,421.79,1041.7,421.34z"/>
		<path class="st2" d="M1092.79,418.47c0.18-0.62,8.07-1.03,13.34,3.04c4.11,3.17,5.2,7.98,4.5,8.31c-0.7,0.33-2.82-3.93-8.94-7.56
			C1096.68,419.29,1092.65,418.92,1092.79,418.47z"/>
	</g>
</g>
<g id="Logo">
	<rect x="215.09" y="333.71" class="st4" width="767.6" height="167.73"/>
	<text transform="matrix(1 0 0 1 215.0943 476.5101)" class="st5 st6">Determit</text>
	<rect x="510.85" y="620.18" class="st4" width="2.26" height="0"/>
</g>
<g id="Layer_3">
</g>
</svg>
