<?xml version="1.0" encoding="UTF-8"?>
<svg id="Layer_2" data-name="Layer 2" xmlns="http://www.w3.org/2000/svg" viewBox="0 0 169.59 229">
  <defs>
    <style>
      .cls-1, .cls-2 {
        stroke: #000;
        stroke-miterlimit: 10;
      }

      .cls-2 {
        fill: #fff;
      }
    </style>
  </defs>
  <path id="right_antena" data-name="right antena" class="cls-1" d="m99.43,55.09c1.04,1.02,6.27-7.52,19.05-11.03,7.66-2.1,13.41-1.13,17.54-6.02.57-.68,3.03-3.58,2.51-7.02-.56-3.64-4.22-6.27-6.52-7.02-12.12-3.92-34.68,29.03-32.58,31.08Z"/>
  <path id="left_antena" data-name="left antena" class="cls-1" d="m83.39,54.09c4.12-2.08-9.17-45.48-20.55-45.11-1.61.05-3.54.99-4.51,2.51-2.24,3.49,1.07,9.39,6.02,17.04,11.42,17.69,17.13,26.53,19.05,25.56Z"/>
  <ellipse id="head" class="cls-1" cx="84.15" cy="97.28" rx="62.51" ry="45.03"/>
  <path id="torso" class="cls-1" d="m56.9,150.5c4.89-3.28,11.84,2.49,31.33,1.5,17.55-.89,23.01-6.12,27.19-3.51,11.81,7.38-8.51,63.77-30.15,63.66-20.99-.1-40.71-53.38-28.37-61.66Z"/>
  <ellipse id="left_eye" data-name="left eye" class="cls-2" cx="58.8" cy="95.07" rx="14.45" ry="16.16"/>
  <ellipse id="right_eye" data-name="right eye" class="cls-2" cx="116.51" cy="93.27" rx="14.45" ry="16.16"/>
  <ellipse id="left_hand" data-name="left hand" class="cls-1" cx="21.64" cy="164.92" rx="20.64" ry="6.35" transform="translate(-57.78 18.77) rotate(-21.05)"/>
  <ellipse id="left_hand-2" data-name="left hand" class="cls-1" cx="149.69" cy="164.92" rx="6.35" ry="20.64" transform="translate(-57.99 245.4) rotate(-68.95)"/>
</svg>